<svg fill="#FFFFFF" xmlns="http://www.w3.org/2000/svg" viewBox="0 0 727.6 278.7" class="w-full h-full">
 <path d="M467.5,166.6C443.2,130.4,438.9,16.7,498,17.2a32.2,32.2,0,0,1,20.4,7.3c20.5,17.2-1.4,39.2-14.2,21.6-3.8-5.2-10.5-4-14.5.2-17.4,18.5-17,86.5,4.2,109.2,4.5,4.8,11.3,7.3,17.6,4.6h0a6.5,6.5,0,0,0,3.9-3.9l2-4.9a15.1,15.1,0,0,1,1.1-2.2,13.4,13.4,0,0,1,19.7-2.5C559.8,164.4,507.4,220.7,467.5,166.6ZM262.2,186.2a210.1,210.1,0,0,1-6.1-20.3,52.8,52.8,0,0,1-1.5-12.5c0-4.9.5-9.9.2-14.9-.2-11.1-14.1-17.4-22.1-9.1s-.3,20.8-11.2,29.2c-17.1,13.2-36.8-2.7-37.8-23.1s5-38.5,21.4-46.5l2.7-1c9.2-2.9,16.2,2,20.4,8.2a11.6,11.6,0,0,1,1.8,4c.4,2.8.5,3.2.5,3.2,2.3,10.3,18.6,11.8,21.5.5,5.2-55.1-70.2-45.9-86.2-7.7-20.1,48,11.5,115.3,66.6,86.4A124.6,124.6,0,0,0,244.3,211a18.7,18.7,0,0,0,5.2,6c13.8,10.6,28-6.4,17.1-22.2A69.6,69.6,0,0,1,262.2,186.2Zm465.1-113c-.6-17.1-25.4-17.5-26.7-.9,0,.6-.8,3.7-.9,4.3-3.3,50.7-19.4,69.6-19.4,69.6s-3.8-86.1-28.7-80.9c-6,1.3-9.4,5.6-9.8,12.9-1.6,27.6-7.8,69.2-41.6,91.3-5.2,3.4-5.1,12.4,0,16.7,17.8,14.8,56.2-37,55.3-55.5,1.4,30.3-6.2,55.3,4.3,62.5,15.5,10.7,57.4-35.9,65.7-89.4C727.7,89.4,728.1,83.4,727.3,73.2Zm-548,153c-4.6,5-13,6.9-19.1,0-21.7-24.5-44.6-48.1-71.9-66.1-13.7,31.6-48,55-73.7,31.8A43.7,43.7,0,0,1,.5,166.1c-5.7-38.4,42.6-64.4,77.4-42.8a316.1,316.1,0,0,0,24.6-87.9c-.1.7,1.6-16.6,2.2-24.5.3-14.5,22.3-14.5,22.4,0,.9,43.2-9,86.4-26.9,125.6l7.4,5.1C123.4,154,198.2,205.7,179.3,226.2ZM66,146.5c-1.5-.8-8.5-4.9-16-5.4s-27.1,6.8-23.5,22.3a20,20,0,0,0,2.9,6.5l.5.7c12.5,12.9,25.3-4.7,31.3-15.9Zm375.5,62.6a20,20,0,0,1-7.4-5.2,116.2,116.2,0,0,1-16.3-23.1c-28,26-69.9,5.7-80.8-27.4-7.8-19.4-8.3-42.7.3-62-2.4-12.6-4.7-25.2-7-37.9a130.5,130.5,0,0,1-22.1,11.1c10.8,37.7,10.9,80.2-4.9,116.6-6,11.6-25,3.5-21.2-8.9,2.2-8.2,4.6-16.3,6.1-24.6,3.3-15.2,2.9-40.2,1.3-50.7A156.3,156.3,0,0,0,284,71.7c-27.5,8-59.8-18-47.9-43.6a28.7,28.7,0,0,1,15.2-14.7C270.2,6,292.4,20.8,299.1,40h0a114,114,0,0,0,29.3-17.7,27.6,27.6,0,0,1,3.9-2.8C356.8,5.8,354.3,51.4,359,66c53.3-32.3,87.6,39.1,60.6,47.3a10.7,10.7,0,0,1-8.4-.7c-9.2-5.1-2.4-19.6-15.3-26.2-10.4-6.5-23.7-1.2-30.4,8a56,56,0,0,0-5.1,8.8c0-.1.1-.1.1-.2-9.3,22.7,2.3,69.2,33.6,61.2l-.3.2c.3-.2,2.5-1,1.4-.8l3.2-1.7-.4.4a33.3,33.3,0,0,0,4.6-4.6l-.4.3a20.4,20.4,0,0,0,3-15.9h0c-3.4-16.1,21.2-24.3,25.4-7.8l.5,2.2A110.7,110.7,0,0,0,446.3,176c.5.9,1.6,2.4,2.4,3.6a12.1,12.1,0,0,0,2.1,2.4C466.6,194.6,457.2,215.1,441.5,209.1ZM276.3,47.5c-.9-1.4-7-13.8-14.9-15.7-3.5-.5-5.2,1.7-5.5,5.2C255.8,43.6,275.3,47.3,276.3,47.5ZM538.4,62.2c39.9-42.8,108,10.3,75,60.7C572.3,179.1,490.6,113.6,538.4,62.2Zm58.2,31.4c-.3-14.2-11-25.1-25.2-22s-21.5,12.1-22,25.2,11.1,23.8,25.2,22S596.9,106.7,596.6,93.6Z"></path>
 <path d="M381.1,278c-3.5,1.2-8.2.1-11.9-.1a3.5,3.5,0,0,1-3.4-3.4c.1-13.5,0-26.9,1.2-40.3a1.6,1.6,0,0,1,3.1,0c1.5,12.3,1.8,24.6,2.3,36.9,3.2,0,6.6,0,9.4,1.2S383.4,277.2,381.1,278Zm-50.4-33.8a55.7,55.7,0,0,1,0,16.3c-.9,6.2-3.9,21.7-13.7,17.3-3.9-1.8-5.6-6.4-6.9-10.2a44.7,44.7,0,0,1-2.4-15.4,35.4,35.4,0,0,1,1.6-10.3,13.4,13.4,0,0,1,4-7.9c3.5-3.1,8.7-3.8,12.4-.7S330.2,240.2,330.7,244.2Zm-6.4-.4c-.6-2.8-2.2-7.7-5.9-5.5s-3.5,7.6-3.7,11.2a2.7,2.7,0,0,1-1.8,2.5,43.3,43.3,0,0,0,.6,5.8,37.2,37.2,0,0,0,3.7,11.7c.6,1.1,1.5,3.1,3,2.8s2-2.4,2.3-3.4A48.7,48.7,0,0,0,324.3,243.8Zm35-1.5c-.2-3.3-.1-6.8-.9-10s-5.5-3.1-5.9,0c-.9,6.3.2,13.3.5,19.7.1,1.6.2,3.3.2,4.9l-3.7-6.8c-1.7-3.2-3.5-6.3-5.4-9.5s-3.4-6.1-6.2-8.2a1.1,1.1,0,0,0-1-.1,1.3,1.3,0,0,0-1.5,1.1c-1.1,6.7-.4,13.8-.2,20.5s.2,13.3.7,20a2.4,2.4,0,0,0,0,1.2,4.3,4.3,0,0,1,.2,1.1c.7,3.5,6.4,2.7,6.2-.8-.2-7.1-1-14.3-1.6-21.4l-.6-8.4c1.2,2.6,2.4,5.2,3.7,7.8,3.5,6.9,6.9,13.8,10.4,20.6,1.6,3,6.7,1.7,6.5-1.8-.4-6.7-.7-13.5-1.1-20.2C359.7,248.8,359.5,245.6,359.3,242.3Zm98.6,29.4c-2.1-.2-4.3.9-6.4.1s-2.3-3.6-2.7-5.5a75,75,0,0,1-1.4-9.5l4.2-.2c2.2-.2,4.3-.1,5.9-1.7a2.7,2.7,0,0,0-.5-4.2c-2.1-1.1-3.9-.4-6.1.1s-2.5.5-3.7.9v-.4c-.1-4.1-.4-9,1.1-13a8.3,8.3,0,0,1,4.3-4.7c1.5-.6,3.2-.5,4.7-1l.2-.2c-.3-5.3-8.2-3.3-10.7-1.2-5.2,4.3-5.5,12.1-5.6,18.3s.2,15.8,2.7,22.7,10,8.2,15.5,5C462,275.5,460.6,272,457.9,271.7Zm-26.8-40.9c-.8-4.2-7.2-2.4-6.4,1.8a186.6,186.6,0,0,1,3.2,23.8l-2.4-4.7c-3.4-6.6-7-13.6-12.1-19-1.5-1.6-4.8.1-3.9,2.3h.1a49,49,0,0,0-.5,7.7c-.1,3.7-.1,7.5,0,11.2.2,7.2.5,14.4.9,21.5-.5,3.6,6.4,4.7,6.2.2-.3-7.5-.8-15-1.5-22.4-.3-3.2-.6-6.3-1-9.5,1.8,3.4,3.7,6.8,5.4,10.2,3.2,6.7,5.8,13.6,8.7,20.5,1.3,3.2,6.8,3.3,6.6-.9-.2-7.2,0-14.4-.6-21.7A166.8,166.8,0,0,0,431.1,230.8Zm-28.7,42.7a5.7,5.7,0,0,0-3.8-.9,32.1,32.1,0,0,0-.2-5.3c-.3-3.9-.5-7.7-.8-11.6s-.4-7.3-.7-10.9c-.1-1.8-.1-3.9-.3-5.9h2.7c4.1.1,4-6.6,0-6.3s-9.9,0-13.8,2.1a1.6,1.6,0,0,0,0,2.8,15.2,15.2,0,0,0,5.3,1.2,45.2,45.2,0,0,0,.2,5.3c.1,3.9.3,7.7.4,11.6s.3,7.3.4,10.9-.2,4.6.4,6.6a27.4,27.4,0,0,0-3.9.9,1.2,1.2,0,0,0,0,2.3,34.7,34.7,0,0,0,7.1,1.6c2.4.3,4.9,1.1,7.1-.3A2.4,2.4,0,0,0,402.4,273.5Z"></path>
</svg>