<svg xmlns="http://www.w3.org/2000/svg" xmlns:xlink="http://www.w3.org/1999/xlink" viewBox="0 0 291.5 306.1" class="w-full h-full"><defs><clipPath id="clip-path-laravel-podcast" transform="translate(0 0)"><rect width="291.5" height="306.08" style="fill:none"></rect></clipPath></defs><g id="Layer_2" data-name="Layer 2"><g id="Layer_1-2" data-name="Layer 1"><polygon points="87.1 125.4 63.8 112 63.5 204.1 138.3 247.2 138.3 226.3 86.9 196.7 87.1 125.4" style="fill:#ff0005"></polygon><g style="clip-path:url(#clip-path-laravel-podcast)"><path d="M209.7,128.9l-47.2,27.3.3,92.1,23.3-13.5V202.2l23.9-13.8c20.6-11.9,31.2-29.8,31.2-46.7v-2.2c-.1-16.9-10.8-22.4-31.4-10.6M186,186.5V162.1l19.4-11.2c8.7-5,12.3-2.8,12.3,3.7v2.7c0,6.4-3.4,13-12,17.9Z" transform="translate(0 0)" style="fill:#ff0005"></path><path d="M225.4,96.5l-66-38.2L111.2,82.4l13.9,11.7c9,.3,17.1,2.1,24.5,6.4,10,5.7,9.8,11.6,3.7,15.1l-1.8,1.1c-7,4.1-17,4-29-2.9A44.4,44.4,0,0,1,103.7,93L82.1,95.3C85.4,105.2,92.5,115,108,124c22.4,12.9,48.8,14.1,64.1,5.2l2.6-1.5c13.8-8,14.7-19.9-3.7-30.6-10.6-6.1-20.9-8.3-32.9-8.8l21.8-11,34.6,20c10,5.8,18.3,5.4,30.9-.8" transform="translate(0 0)" style="fill:#ff0005"></path></g><polygon points="21.6 99.5 4.9 91.5 6.4 88.3 20.3 94.9 21.9 91.5 24.8 92.9 21.6 99.5" style="fill:#ff0005"></polygon><path d="M23.3,70l5.5,4.8.8-1.2Zm11.4,6.5L32.1,75l-1.2,1.7,2.3,2-1.8,2.6L17.7,68.6,20,65.2l16.7,8.3Z" transform="translate(0 0)" style="fill:#ff0005"></path><g style="clip-path:url(#clip-path-laravel-podcast)"><path d="M38.6,48.9c-.4-.4-.7-.4-1-.1l-.6.6L40.8,53l.6-.6c.2-.3.2-.6-.2-1Zm11.2,9.5c-.4.4-1.8-.5-2.6-1.3l-2.7-2.6a.9.9,0,0,0-1.2-.2l-.6.6,5.4,5.3-2.5,2.6L32.4,49.9l3.4-3.6a3.4,3.4,0,0,1,5,0l2.7,2.5a2.6,2.6,0,0,1,.6,2.7,2.6,2.6,0,0,1,2.7.5l2.6,2.5a7.9,7.9,0,0,0,2.5,1.7h0Z" transform="translate(0 0)" style="fill:#ff0005"></path></g><path d="M58,34.2l3.6,6.3,1.2-.9ZM66.7,44l-2-2.2L63,43l1.5,2.6L62,47.5,53.1,31l3.3-2.4L69.6,41.9Z" transform="translate(0 0)" style="fill:#ff0005"></path><polygon points="86.1 32.2 83.1 33.8 71.9 18.7 75.1 17.1 81.6 26.8 77.5 15.8 80.5 14.3 86.1 32.2" style="fill:#ff0005"></polygon><polygon points="101.8 25.5 96.1 7.9 103.3 5.6 104.2 8.6 100.5 9.8 101.8 14 104.3 13.2 105.2 16 102.7 16.8 104.2 21.3 108 20.1 109 23.2 101.8 25.5" style="fill:#ff0005"></polygon><polygon points="123 19.9 120.2 1.6 123.7 1.1 126 16.2 129.7 15.7 130.2 18.8 123 19.9" style="fill:#ff0005"></polygon><g style="clip-path:url(#clip-path-laravel-podcast)"><path d="M168,4.4c.1-.6-.1-.8-.5-.9h-.9l-.7,5.8h.9c.4,0,.6-.2.7-.8Zm-1.1,7.7-1.3-.2-.9,6.9-3.6-.5L163.5,0l4.9.6a3.4,3.4,0,0,1,3,4.1l-.5,4.1c-.4,2.6-2.1,3.5-4,3.3" transform="translate(0 0)" style="fill:#ff0005"></path><path d="M192.9,9.8a.9.9,0,0,0-.6-1.1,1,1,0,0,0-1.1.6L188,19.9a.8.8,0,0,0,.6,1,.7.7,0,0,0,1-.5ZM187.7,24a4.2,4.2,0,0,1-3.1-5.4l3.1-10.2a4.1,4.1,0,0,1,5.5-2.7,4.2,4.2,0,0,1,3.1,5.3l-3.1,10.2a4.1,4.1,0,0,1-5.5,2.8" transform="translate(0 0)" style="fill:#ff0005"></path><path d="M216.7,20.1c.3-.7.3-1.2-.4-1.5l-.6-.4-5.5,11,.6.4c.6.3,1.1.1,1.4-.6Zm-7,12.4-4.1-2.1,8.3-16.5,4.1,2a4.1,4.1,0,0,1,1.9,5.8l-4.6,9c-1.2,2.5-3.5,2.8-5.6,1.8" transform="translate(0 0)" style="fill:#ff0005"></path><path d="M229.3,44.9a4.3,4.3,0,0,1-1.1-6.3l6.1-8.3a4.4,4.4,0,0,1,6.4-.8,3.9,3.9,0,0,1,.7,5.8l-1.6,2.3-2.5-1.8,1.7-2.4a.8.8,0,0,0-.3-1.3.9.9,0,0,0-1.4.2L231,40.9a.9.9,0,0,0,.2,1.4c.6.4,1.1.3,1.4-.2l1.7-2.3,2.5,1.8-1.7,2.3c-1.5,2.1-3.8,2.6-5.8,1" transform="translate(0 0)" style="fill:#ff0005"></path></g><path d="M255.6,50.1l-5.7,4.5,1,1Zm-8.5,10,1.9-2.3-1.4-1.5-2.4,1.9L243,55.9l15.1-11,2.8,2.9L249.6,62.6Z" transform="translate(0 0)" style="fill:#ff0005"></path><g style="clip-path:url(#clip-path-laravel-podcast)"><path d="M260.5,76.9a4,4,0,0,1,1-6.1l1.3-.9,1.8,2.5-1.4,1a1.2,1.2,0,0,0-.4,1.7c.4.6,1,.6,1.7.2s1.6-2.3,2.2-4.2,1.3-4.7,3.2-6,4.7-1.5,6.4,1,.9,4.2-1.3,5.7l-1.3,1-1.8-2.6,1.5-1a1,1,0,0,0,.4-1.4,1.1,1.1,0,0,0-1.5-.2c-1.4,1-1.6,2.2-2.2,4.2s-1.4,4.7-3.3,6-4.9,1.2-6.3-.9" transform="translate(0 0)" style="fill:#ff0005"></path></g><polygon points="286.5 90.8 272.7 97.4 271.2 94.2 284.9 87.6 283.8 85.3 286.7 83.9 290.5 91.7 287.6 93.1 286.5 90.8" style="fill:#ff0005"></polygon><g style="clip-path:url(#clip-path-laravel-podcast)"><path d="M56.7,276.1c-2.9-2.2-3.5-5-1.6-7.5l.6-.7,3.3,2.5-.6.6a1.5,1.5,0,0,0,.3,2.1,1.2,1.2,0,0,0,1.9-.4c.7-.8.1-2.2-.5-3.9s-1.6-4.4,0-6.5,4.8-3.1,7.8-.8a5,5,0,0,1,1.2,7.1l-.5.6-3.2-2.5.4-.6a1.1,1.1,0,0,0-.1-1.7,1.2,1.2,0,0,0-1.8.3c-.6.8,0,2.2.6,3.8s1.6,4.5-.1,6.7a5.3,5.3,0,0,1-7.7.9" transform="translate(0 0)" style="fill:#ff0005"></path></g><polygon points="75.6 287.9 83.5 272.2 92.5 276.8 90.8 280.2 86 277.8 84.7 280.5 87.7 282.1 86.2 285.1 83.2 283.5 81.7 286.4 86.4 288.8 84.6 292.5 75.6 287.9" style="fill:#ff0005"></polygon><path d="M108.6,289l-2.6,5.4,1.7.5Zm-1.7,11.6.3-2.5-2.6-.8-1.1,2.3-4.1-1.2,8.3-15.9,5.3,1.6-1.6,17.8Z" transform="translate(0 0)" style="fill:#ff0005"></path><g style="clip-path:url(#clip-path-laravel-podcast)"><path d="M132.6,305.9c-3.6-.4-5.5-2.5-5.2-5.6v-.9l4.1.4v.8a1.3,1.3,0,0,0,1.3,1.6c.9.1,1.3-.4,1.4-1.3s-1.1-1.9-2.4-3-3.7-3-3.5-5.6,2.5-5.1,6.3-4.8a5,5,0,0,1,4.7,5.5v.7l-4.1-.4v-.8a1.1,1.1,0,0,0-1-1.3,1.2,1.2,0,0,0-1.4,1.1c-.1,1.1,1.2,2,2.5,3s3.7,3,3.5,5.7a5.5,5.5,0,0,1-6.2,4.9" transform="translate(0 0)" style="fill:#ff0005"></path><path d="M160.7,292.4a1.1,1.1,0,0,0-1.2-.9c-.5.1-1,.5-.9,1l.7,8.8a1.1,1.1,0,0,0,1.2.9,1,1,0,0,0,.9-1.1Zm.1,13.6c-3.3.3-6.1-1.5-6.3-4.5l-.7-8.3c-.3-3,2.1-5.2,5.4-5.5s6.1,1.5,6.3,4.5l.7,8.3c.3,3-2.1,5.3-5.4,5.5" transform="translate(0 0)" style="fill:#ff0005"></path></g><polygon points="191.3 299.8 187.1 295 185.2 292.9 187.5 300.8 183.4 302 178.6 285.1 182.5 284 186.7 288.9 188.5 291 186.2 282.9 190.2 281.8 195 298.7 191.3 299.8" style="fill:#ff0005"></polygon><g style="clip-path:url(#clip-path-laravel-podcast)"><path d="M226.3,267.4l-3.1,2.1,1.7,3a3.9,3.9,0,0,1,1.8-3,3.2,3.2,0,0,1,4.7,1.1l2.3,3.4c1.6,2.3.8,5.2-1.9,7a4.8,4.8,0,0,1-6.8-1l-.8-1.2,3.3-2.2.5.8a1.1,1.1,0,0,0,1.8.4,1.1,1.1,0,0,0,.3-1.6l-1.8-2.7a1.1,1.1,0,0,0-1.5-.3c-.5.3-.7,1-.4,1.3l-3.4,1.8-4.7-7.9,7.9-5.4c1.2,2.3,1.3,3.6.1,4.4" transform="translate(0 0)" style="fill:#ff0005"></path><path d="M280.9,115.4S313.3,197,246,262.2M10.6,108.9s-32.4,81.6,34.8,146.8" transform="translate(0 0)" style="fill:none;stroke:#ff0005;stroke-miterlimit:10;stroke-width:5.556000232696533px"></path></g></g></g></svg>